<?xml version="1.0" standalone="no"?>
<!DOCTYPE svg PUBLIC "-//W3C//DTD SVG 20010904//EN"
 "http://www.w3.org/TR/2001/REC-SVG-20010904/DTD/svg10.dtd">
<svg version="1.0" xmlns="http://www.w3.org/2000/svg"
 width="1280.000000pt" height="640.000000pt" viewBox="0 0 1280.000000 640.000000"
 preserveAspectRatio="xMidYMid meet">
<metadata>
Created by potrace 1.15, written by Peter Selinger 2001-2017
</metadata>
<g transform="translate(0.000000,640.000000) scale(0.100000,-0.100000)"
fill="#000000" stroke="none">
<path d="M1625 5133 c-29 -2 -58 -12 -70 -22 -53 -49 -147 -71 -300 -71 -50 0
-106 -5 -125 -11 -19 -6 -42 -12 -50 -13 -8 -1 -62 -26 -120 -54 -88 -44 -110
-51 -141 -46 -30 5 -52 0 -105 -25 -38 -18 -81 -31 -98 -29 -54 3 -324 -135
-397 -204 -42 -39 -95 -203 -119 -364 -30 -208 8 -555 76 -686 38 -73 132
-147 188 -148 10 0 39 -15 65 -34 63 -46 109 -68 224 -106 75 -24 95 -35 87
-44 -8 -10 28 -14 172 -20 l181 -7 35 -30 c50 -44 77 -52 177 -48 50 2 135 3
190 3 93 1 104 -2 163 -32 79 -41 181 -141 217 -212 42 -82 55 -144 55 -260 0
-59 6 -130 14 -160 29 -111 -32 -275 -155 -414 -52 -59 -281 -276 -319 -303
-17 -12 -34 -4 -152 72 -179 114 -260 180 -341 278 -128 154 -166 248 -174
427 -3 81 0 130 10 167 13 49 13 54 -5 73 -29 31 -43 25 -90 -37 -27 -35 -53
-59 -67 -61 -31 -5 -72 24 -64 44 5 14 2 14 -28 -1 -19 -10 -41 -24 -50 -32
-15 -13 -19 -12 -31 6 -14 20 -15 20 -47 -19 -28 -35 -34 -38 -51 -27 -11 6
-20 18 -20 26 0 11 -5 9 -21 -5 -12 -10 -31 -18 -44 -16 -26 4 -59 -31 -102
-108 -31 -55 -43 -62 -44 -27 0 16 -7 9 -25 -28 -25 -50 -25 -64 -5 -140 24
-92 26 -275 2 -275 -13 0 -41 98 -41 144 -1 22 -7 70 -15 106 -18 83 -19 165
-1 223 20 67 -4 63 -35 -5 -34 -76 -32 -245 3 -418 45 -218 94 -314 183 -359
28 -13 61 -30 75 -37 18 -9 25 -21 25 -41 0 -24 -4 -28 -25 -27 -14 1 -36 5
-50 9 -18 6 -4 -13 54 -71 47 -47 80 -74 83 -66 7 17 74 15 101 -4 17 -11 26
-13 36 -5 9 8 19 4 36 -14 16 -17 33 -25 54 -24 20 1 78 -21 157 -60 105 -50
136 -61 178 -61 37 0 78 -11 144 -38 117 -49 148 -55 198 -38 36 13 40 12 49
-4 28 -52 251 -73 375 -36 75 23 201 81 280 129 50 31 56 37 34 37 -14 0 -28
3 -32 6 -12 13 187 133 241 145 48 11 61 21 155 119 169 175 292 383 377 636
67 203 75 377 25 568 -75 285 -361 597 -615 669 -120 34 -188 40 -515 42 -367
3 -451 13 -579 73 -62 29 -63 30 -80 91 -45 161 -41 365 10 521 20 61 34 85
59 104 44 34 109 67 134 69 12 1 23 9 26 18 3 10 34 46 68 82 56 59 67 65 112
71 77 9 128 2 169 -23 40 -25 231 -257 251 -306 7 -16 16 -49 20 -72 8 -49 35
-87 77 -109 28 -15 31 -14 53 6 l23 21 38 -19 c22 -11 48 -27 58 -35 18 -13
22 -12 41 17 14 21 28 30 42 28 12 -2 32 8 47 23 33 33 47 32 74 -5 13 -17 60
-55 105 -85 l82 -55 14 41 c11 35 11 42 -3 58 -9 10 -16 27 -16 38 0 11 -16
64 -35 117 -19 53 -35 104 -35 113 0 9 10 35 22 59 20 42 21 44 4 87 -9 24
-21 59 -26 76 -14 49 13 22 44 -43 13 -28 41 -86 61 -129 35 -75 37 -78 68
-75 30 3 32 6 31 39 -1 47 -44 157 -93 241 -21 37 -89 134 -151 217 l-111 150
-80 31 c-43 16 -112 37 -152 46 -72 16 -306 26 -402 17z"/>
<path d="M4885 5111 c-17 -10 -39 -30 -48 -45 -14 -20 -26 -26 -53 -26 -26 0
-53 -12 -99 -44 -65 -46 -95 -47 -95 -5 0 29 -16 15 -23 -20 -5 -23 -14 -32
-44 -42 -54 -18 -110 -57 -132 -93 -22 -36 -24 -44 -95 -331 -56 -227 -126
-452 -198 -635 -23 -58 -43 -107 -45 -109 -16 -21 -2 46 63 290 85 324 146
571 141 575 -2 2 -47 -139 -101 -314 -54 -174 -152 -459 -216 -632 -65 -173
-125 -340 -135 -370 -10 -30 -42 -100 -71 -155 -90 -169 -140 -324 -229 -700
-30 -130 -87 -332 -125 -447 -72 -218 -95 -308 -88 -349 10 -56 107 207 198
540 33 117 61 216 64 218 3 3 8 -10 11 -29 7 -37 -8 -109 -29 -143 -7 -11 -16
-45 -20 -75 -12 -89 -43 -200 -126 -446 -78 -233 -113 -358 -65 -234 52 131
89 210 96 203 13 -13 14 -72 5 -175 -4 -54 -5 -109 -2 -123 l6 -25 73 39 c84
45 100 43 138 -20 42 -70 79 -119 89 -119 5 0 12 12 16 28 17 78 30 106 58
121 23 13 41 45 93 166 124 289 230 570 231 609 2 58 9 73 46 90 103 49 287
64 817 69 l396 4 57 -116 c32 -64 79 -152 104 -196 63 -108 302 -472 302 -459
0 9 -36 70 -217 369 -95 157 -204 387 -190 401 2 3 17 -14 32 -36 28 -41 46
-49 26 -12 -18 33 -13 52 12 52 18 -1 43 -38 152 -232 235 -418 382 -642 430
-654 13 -3 32 -1 43 5 12 6 30 11 41 11 12 0 21 6 21 14 0 21 64 86 85 86 10
0 47 -14 81 -31 53 -25 67 -28 84 -19 l22 12 -21 22 c-12 12 -21 30 -21 38 0
26 29 48 62 48 16 0 28 3 26 8 -16 37 -137 255 -203 367 -45 77 -108 186 -139
241 -169 305 -736 1490 -771 1613 -14 47 -33 97 -44 111 -10 15 -18 42 -18 65
0 24 -11 62 -28 95 -15 30 -38 96 -50 146 -29 115 -61 195 -148 369 -79 159
-148 325 -166 403 -7 28 -18 52 -24 52 -7 0 -26 -8 -42 -19z m-105 -1181 c0
-5 -2 -10 -4 -10 -3 0 -8 5 -11 10 -3 6 -1 10 4 10 6 0 11 -4 11 -10z m97
-468 c95 -229 175 -424 178 -433 5 -14 -7 -16 -107 -17 -92 -1 -374 -31 -551
-59 l-37 -6 32 89 c18 49 85 232 148 407 74 203 119 315 127 313 8 -3 14 17
18 60 4 35 10 64 14 64 3 0 84 -188 178 -418z m134 -2 c89 -201 167 -379 175
-395 11 -28 11 -31 -6 -32 -10 -1 -21 6 -25 15 -5 14 -7 14 -15 2 -5 -8 -11
-12 -13 -10 -2 3 -56 126 -120 273 -79 180 -119 283 -122 315 -2 26 -15 86
-29 135 -14 48 -26 91 -25 95 1 9 -13 40 180 -398z m52 -509 c29 -11 67 -49
67 -66 0 -9 -61 -14 -207 -19 -115 -4 -298 -15 -408 -24 -110 -10 -201 -17
-203 -16 -2 1 2 12 8 24 21 40 109 70 258 89 153 19 446 26 485 12z m185 -36
c20 -42 21 -45 4 -45 -29 0 -65 44 -57 69 10 33 29 25 53 -24z m-1606 -212
c-17 -54 -36 -124 -43 -156 -7 -31 -14 -55 -17 -53 -7 7 26 152 55 239 36 112
40 88 5 -30z m1828 -233 c0 -5 -4 -10 -10 -10 -5 0 -10 5 -10 10 0 6 5 10 10
10 6 0 10 -4 10 -10z m-361 -25 c-3 -2 -137 -9 -299 -15 -161 -5 -345 -15
-408 -21 -63 -6 -116 -8 -118 -6 -7 7 182 29 320 37 142 8 512 12 505 5z"/>
<path d="M7791 5083 c-26 -27 -53 -58 -61 -71 l-15 -23 -51 27 -50 27 -30 -21
c-37 -27 -179 -63 -192 -50 -7 7 -20 2 -39 -16 -15 -14 -37 -26 -49 -26 -18 0
-23 -8 -28 -45 -11 -68 -8 -240 5 -351 17 -141 15 -377 -4 -439 -8 -29 -17
-44 -20 -35 -14 39 -77 565 -77 642 0 94 -11 138 -34 138 -40 0 -46 -66 -26
-304 12 -149 12 -218 -5 -620 l-18 -451 21 -360 c13 -198 22 -427 22 -510 -1
-134 -2 -147 -15 -125 -15 28 -23 17 -24 -35 0 -16 -3 -66 -7 -111 -5 -63 -1
-104 16 -185 15 -69 23 -150 26 -244 2 -77 12 -219 24 -315 11 -96 20 -190 20
-209 0 -33 1 -34 19 -17 24 22 41 13 41 -20 0 -13 5 -24 10 -24 6 0 10 8 10
18 0 17 4 17 73 5 39 -7 144 -16 232 -20 148 -5 169 -4 275 20 312 69 575 86
1464 96 44 1 48 3 31 14 -13 11 -16 21 -11 41 7 27 6 27 -23 21 -49 -10 -298
-8 -527 5 -116 7 -277 11 -358 8 -133 -3 -145 -2 -115 10 110 45 352 56 597
28 111 -13 136 -12 275 5 83 10 168 21 187 25 135 27 229 142 186 226 -14 26
-13 27 22 41 21 8 52 18 70 22 22 4 32 12 32 25 0 9 10 24 22 32 l21 14 -26
39 c-14 21 -31 59 -38 86 -11 41 -15 46 -29 36 -28 -17 -48 -1 -60 45 -19 69
-16 68 -173 61 -94 -3 -219 0 -372 12 -343 26 -435 25 -585 -8 -134 -30 -290
-46 -290 -31 0 21 34 55 73 76 56 29 32 34 -84 18 -63 -8 -97 -8 -126 -1 l-40
11 -7 462 c-6 411 -5 471 9 533 63 266 61 497 -9 1110 -32 277 -46 460 -46
593 0 57 -5 112 -10 123 -19 34 -58 24 -109 -28z"/>
<path d="M11620 5069 c-338 -32 -630 -58 -648 -58 -21 -1 -32 -5 -30 -13 8
-23 75 -48 163 -61 86 -13 89 -14 60 -26 -51 -21 -125 -32 -250 -37 l-120 -4
-3 -47 c-4 -61 -14 -73 -58 -66 -20 3 -67 0 -105 -7 -52 -10 -75 -10 -94 -2
-24 11 -25 10 -25 -21 0 -17 -4 -39 -10 -47 -7 -12 -12 -11 -30 5 -19 18 -22
18 -38 2 -13 -14 -18 -45 -23 -155 -4 -75 -14 -180 -23 -232 -38 -236 -69
-604 -87 -1035 -12 -296 -9 -647 12 -1400 13 -471 -1 -435 180 -461 55 -7 108
-18 119 -24 15 -8 21 -6 30 10 10 19 20 20 323 20 288 0 316 2 365 20 29 11
64 20 78 20 14 0 134 31 267 69 267 77 407 105 571 116 86 6 112 11 127 26 12
12 33 19 55 19 31 0 35 2 24 14 -6 8 -32 25 -56 36 -24 12 -44 26 -44 32 0 25
26 51 81 78 58 30 59 31 44 53 -19 27 -20 86 -1 93 8 3 30 1 50 -4 20 -6 36
-8 36 -5 0 3 -21 29 -46 59 l-46 53 34 21 c18 11 42 20 54 20 24 0 54 29 54
52 0 24 -21 36 -91 54 -73 19 -177 15 -324 -11 -131 -24 -253 -35 -278 -26
-20 7 -18 9 13 19 73 24 171 42 324 62 144 19 163 24 190 48 18 15 43 35 56
44 24 16 21 17 -100 17 -153 1 -297 -20 -660 -93 -267 -54 -491 -86 -597 -86
-48 0 -52 2 -63 33 -8 20 -15 122 -20 267 -6 230 -6 236 16 280 l22 46 -21 9
c-23 10 -35 51 -20 65 28 27 266 55 593 70 225 10 388 25 420 37 24 9 -114 31
-245 38 -66 4 -205 2 -310 -4 -445 -25 -455 -26 -455 -8 0 10 6 17 13 17 8 0
60 4 118 10 57 5 214 17 349 25 247 16 360 26 480 46 59 9 67 13 79 39 7 17
10 42 6 59 -4 21 -2 32 10 38 15 9 15 11 1 22 -34 28 -9 70 64 106 19 10 39
24 43 31 4 8 15 14 22 14 32 0 13 28 -22 34 -21 3 -56 18 -77 32 l-40 27 -290
-6 c-283 -7 -447 -17 -591 -38 -78 -11 -147 4 -153 34 -8 42 277 75 848 98
157 6 287 13 289 15 2 2 -11 10 -30 18 -91 36 -446 25 -938 -30 -73 -8 -136
-12 -140 -9 -14 14 -12 263 3 360 16 110 53 238 65 231 4 -3 23 5 42 18 24 16
55 25 109 30 41 3 135 24 208 45 106 31 132 36 132 24 0 -11 5 -13 18 -8 60
26 151 35 385 35 199 0 255 -3 284 -15 20 -8 38 -13 40 -11 3 2 -5 7 -16 11
-34 11 -24 25 19 25 35 0 43 5 75 46 19 26 35 56 35 66 0 44 68 106 111 100
20 -3 83 54 75 67 -4 5 -21 7 -39 4 -23 -3 -39 1 -57 15 -21 17 -23 23 -13 45
8 18 31 32 85 52 40 16 76 33 80 39 13 19 9 52 -11 97 -17 37 -18 46 -6 59 12
13 2 15 -94 12 -59 -2 -205 6 -325 17 -119 12 -262 22 -319 22 -87 1 -96 3
-62 11 22 5 204 13 405 18 347 8 450 15 450 29 0 7 -88 25 -225 47 -144 22
-282 15 -935 -47z"/>
<path d="M8050 4995 c0 -19 5 -35 10 -35 6 0 10 16 10 35 0 19 -4 35 -10 35
-5 0 -10 -16 -10 -35z"/>
<path d="M8077 4824 c-13 -14 -7 -33 14 -45 19 -10 20 -9 14 13 -9 29 -19 40
-28 32z"/>
<path d="M8096 4544 c-8 -20 0 -32 14 -18 5 5 5 15 1 22 -6 11 -10 10 -15 -4z"/>
<path d="M1201 4403 c-1 -6 -4 -20 -7 -30 -5 -17 -5 -17 6 0 6 10 9 23 6 30
-3 9 -5 9 -5 0z"/>
<path d="M8120 4282 c0 -12 4 -22 9 -22 10 0 9 26 -2 36 -4 4 -7 -2 -7 -14z"/>
<path d="M8160 4098 c0 -2 7 -41 15 -87 8 -46 18 -124 22 -175 l7 -91 18 90
c9 50 17 107 18 128 0 48 -24 101 -56 122 -13 8 -24 14 -24 13z"/>
<path d="M8104 3889 c10 -40 11 -41 14 -15 2 16 -3 35 -11 43 -13 13 -13 10
-3 -28z"/>
<path d="M8180 3641 c0 -11 5 -23 10 -26 6 -4 10 5 10 19 0 14 -4 26 -10 26
-5 0 -10 -9 -10 -19z"/>
<path d="M8156 3518 c-3 -35 -7 -117 -10 -183 l-5 -120 14 110 c23 194 27 255
17 255 -5 0 -12 -28 -16 -62z"/>
<path d="M8114 3050 c3 -19 11 -39 16 -44 7 -7 8 1 4 24 -4 19 -11 40 -17 45
-6 7 -7 -2 -3 -25z"/>
<path d="M5732 1864 c6 -21 232 -423 235 -420 7 7 -66 156 -127 256 -66 109
-115 183 -108 164z"/>
<path d="M2162 1548 c-55 -44 -54 -59 1 -17 59 46 63 49 50 49 -6 0 -29 -15
-51 -32z"/>
<path d="M9445 1410 c3 -5 11 -10 16 -10 6 0 7 5 4 10 -3 6 -11 10 -16 10 -6
0 -7 -4 -4 -10z"/>
<path d="M11231 1364 c0 -11 3 -14 6 -6 3 7 2 16 -1 19 -3 4 -6 -2 -5 -13z"/>
<path d="M10370 1328 c0 -63 39 -74 111 -33 l44 25 -67 0 c-53 0 -68 3 -68 14
0 8 -4 18 -10 21 -6 4 -10 -8 -10 -27z"/>
<path d="M7598 1273 c12 -2 32 -2 45 0 12 2 2 4 -23 4 -25 0 -35 -2 -22 -4z"/>
</g>
</svg>
